<svg width="20" height="20" fill="none" xmlns="http://www.w3.org/2000/svg"><path fill-rule="evenodd" clip-rule="evenodd" d="M8.19 2.5a3.72 3.72 0 00-3.696 4.14l.218 1.922a3.5 3.5 0 006.956 0l.218-1.922A3.72 3.72 0 008.19 2.5zm2.401 5.94l.219-1.922a2.637 2.637 0 10-5.24 0l.218 1.921a2.417 2.417 0 004.803 0zM6.645 12.5a5 5 0 00-4.88 3.915l-.084.375a.583.583 0 00.57.71h11.878c.373 0 .65-.346.57-.71l-.084-.375a5 5 0 00-4.88-3.915h-3.09zm6.853 3.917a3.917 3.917 0 00-3.764-2.834H6.645a3.917 3.917 0 00-3.764 2.834h10.617z" fill="#505050"/><path d="M11.81 11.667c-.316 0-.43-.385-.231-.632.04-.049.077-.098.114-.149a.92.92 0 01.573-.346 2.418 2.418 0 001.946-2.1l.218-1.922a2.638 2.638 0 00-1.93-2.844 1.45 1.45 0 01-.76-.472 4.896 4.896 0 00-.126-.15c-.185-.21-.083-.552.196-.552a3.72 3.72 0 013.697 4.14l-.219 1.922a3.5 3.5 0 01-3.478 3.105zm4.285 5.833c-.285 0-.489-.293-.492-.578-.003-.262.184-.505.446-.505h1.07a3.918 3.918 0 00-2.55-2.641.856.856 0 01-.433-.283c-.303-.388-.04-.963.438-.843a5.001 5.001 0 013.662 3.765l.083.375a.583.583 0 01-.57.71h-1.654z" fill="#505050"/></svg>