<svg width="20" height="20" fill="none" xmlns="http://www.w3.org/2000/svg"><g clip-path="url(#clip0_6_330)"><path d="M10 20c5.523 0 10-4.477 10-10S15.523 0 10 0 0 4.477 0 10s4.477 10 10 10z" fill="#505050"/><path d="M5.688 5.487V8.89c.518-.618 1.138-.929 1.858-.929.371 0 .703.071 1.001.212.299.14.522.318.673.536.152.22.254.46.31.725.055.264.082.674.082 1.23v3.638H8.003v-3.276c0-.65-.03-1.062-.09-1.237a.799.799 0 00-.323-.416 1.014 1.014 0 00-.581-.157 1.3 1.3 0 00-.714.2 1.133 1.133 0 00-.462.598c-.098.267-.147.66-.145 1.182l-.002 3.106H4.079V5.487h1.609zm6.336 0V8.89c.518-.618 1.139-.929 1.858-.929.37 0 .704.071 1.003.212.297.14.52.318.67.536.152.218.257.465.31.725.056.264.083.674.083 1.23v3.638h-1.607v-3.276c0-.65-.03-1.062-.092-1.237a.796.796 0 00-.324-.416 1.01 1.01 0 00-.58-.157c-.267 0-.506.067-.715.2-.21.133-.362.332-.46.598-.097.267-.146.66-.146 1.182v3.106h-1.607V5.487h1.607z" fill="#fff"/></g><defs><clipPath id="clip0_6_330"><path fill="#fff" d="M0 0h20v20H0z"/></clipPath></defs></svg>