<svg width="20" height="20" fill="none" xmlns="http://www.w3.org/2000/svg"><path fill-rule="evenodd" clip-rule="evenodd" d="M6.542 8.417a3.458 3.458 0 116.916 0 3.458 3.458 0 01-6.916 0zM10 6.042a2.375 2.375 0 100 4.75 2.375 2.375 0 000-4.75z" fill="#505050"/><path fill-rule="evenodd" clip-rule="evenodd" d="M9.686 2.608c2.728-.164 5.624 1.425 6.055 4.948.03.248.048.479.051.686.016 1.122-.34 2.257-.85 3.307-.513 1.053-1.195 2.05-1.87 2.909a25.414 25.414 0 01-1.858 2.101c-.277.282-.559.56-.854.823a.543.543 0 01-.72 0s.038-.042 0 0a25.432 25.432 0 01-2.712-2.924c-.674-.858-1.356-1.857-1.868-2.91-.51-1.049-.867-2.184-.851-3.306.05-3.544 2.752-5.47 5.477-5.634zm.315 13.628a24.326 24.326 0 01-2.22-2.448c-.646-.82-1.28-1.752-1.747-2.713-.469-.965-.754-1.927-.742-2.817.04-2.862 2.176-4.43 4.46-4.568 2.282-.138 4.567 1.16 4.913 3.997.027.222.042.413.044.57.012.891-.273 1.853-.742 2.818-.467.96-1.101 1.892-1.746 2.713A24.314 24.314 0 0110 16.236z" fill="#505050"/></svg>