<svg width="20" height="20" fill="none" xmlns="http://www.w3.org/2000/svg"><path fill-rule="evenodd" clip-rule="evenodd" d="M14.708 2.792a2.5 2.5 0 012.5 2.5v8.333a2.5 2.5 0 01-2.5 2.5H8.042a2.5 2.5 0 01-2.5-2.5V5.292a2.5 2.5 0 012.5-2.5h6.666zM8.042 3.875h6.666c.783 0 1.417.634 1.417 1.417v8.333c0 .783-.634 1.417-1.417 1.417H8.042a1.417 1.417 0 01-1.417-1.417V5.292c0-.783.634-1.417 1.417-1.417zM3.333 7.792a.542.542 0 111.084 0v7.833c0 .898.727 1.625 1.625 1.625h7a.542.542 0 010 1.083h-7a2.708 2.708 0 01-2.709-2.708V7.792zm8.354-1.21a.542.542 0 01-.542.541H8.892a.542.542 0 010-1.083h2.253c.3 0 .542.242.542.541zm2.17 3.466a.542.542 0 000-1.083H8.892a.542.542 0 100 1.083h4.965zm.541 2.383a.54.54 0 01-.541.542H8.892a.542.542 0 110-1.084h4.965c.299 0 .541.243.541.542z" fill="#505050"/></svg>