<svg width="20" height="20" fill="none" xmlns="http://www.w3.org/2000/svg"><path fill-rule="evenodd" clip-rule="evenodd" d="M7.744 6.792a2.083 2.083 0 104.167 0 2.083 2.083 0 00-4.167 0zm1.083 0a1 1 0 102 0 1 1 0 00-2 0z" fill="#505050"/><path fill-rule="evenodd" clip-rule="evenodd" d="M17.208 5a2.5 2.5 0 00-2.5-2.5H8.042a2.5 2.5 0 00-2.5 2.5v8.333a2.5 2.5 0 002.5 2.5v.002h6.666a2.5 2.5 0 002.5-2.5V5zm-2.5 9.75c.783 0 1.417-.634 1.417-1.417v-1.17l-1.479-2.139a1.083 1.083 0 00-1.815.051L9.974 14.75h4.734zm.83-5.342l.587.85V5c0-.782-.634-1.417-1.417-1.417H8.042c-.783 0-1.417.635-1.417 1.417v8.333c0 .783.634 1.417 1.417 1.417h.663l3.202-5.24a2.167 2.167 0 013.63-.102z" fill="#505050"/><path d="M3.875 6.958c-.3 0-.542.243-.542.542v7.833a2.708 2.708 0 002.709 2.709h7a.542.542 0 000-1.084h-7a1.625 1.625 0 01-1.625-1.625V7.5c0-.3-.243-.542-.542-.542z" fill="#505050"/></svg>