<svg width="20" height="20" fill="none" xmlns="http://www.w3.org/2000/svg"><path fill-rule="evenodd" clip-rule="evenodd" d="M13.334 10a3.333 3.333 0 11-6.667 0 3.333 3.333 0 016.667 0zm-1.084 0a2.25 2.25 0 11-4.5 0 2.25 2.25 0 014.5 0z" fill="#505050"/><path fill-rule="evenodd" clip-rule="evenodd" d="M9.153 2.504A1.48 1.48 0 007.688 3.78a1.405 1.405 0 01-1.92 1.108 1.479 1.479 0 00-1.836.63L3.134 6.9a1.479 1.479 0 00.354 1.892c.735.59.723 1.73-.032 2.318a1.479 1.479 0 00-.372 1.906l.797 1.381a1.479 1.479 0 001.815.64c.88-.341 1.86.24 1.992 1.186a1.479 1.479 0 001.465 1.275h1.594c.73 0 1.35-.531 1.461-1.252a1.553 1.553 0 012.096-1.21c.68.264 1.45-.008 1.815-.639l.797-1.381c.37-.64.21-1.453-.372-1.906-.754-.587-.767-1.727-.032-2.318a1.48 1.48 0 00.354-1.892l-.797-1.38a1.479 1.479 0 00-1.837-.631c-.886.36-1.88-.2-2.024-1.132a1.479 1.479 0 00-1.46-1.252H9.152zM8.76 3.928a.395.395 0 01.392-.34h1.594c.195 0 .361.142.39.334.255 1.635 1.981 2.587 3.502 1.97a.395.395 0 01.491.168l.798 1.381a.395.395 0 01-.095.506c-1.29 1.037-1.25 3.008.045 4.017a.395.395 0 01.1.51l-.797 1.38a.396.396 0 01-.486.171c-1.57-.608-3.3.39-3.557 2.054a.395.395 0 01-.39.335H9.152a.395.395 0 01-.392-.341c-.226-1.626-1.913-2.646-3.456-2.048a.395.395 0 01-.485-.17l-.798-1.382a.395.395 0 01.1-.51c1.295-1.008 1.334-2.979.045-4.016a.395.395 0 01-.094-.506l.797-1.38a.395.395 0 01.49-.17A2.488 2.488 0 008.76 3.928z" fill="#505050"/></svg>