<svg width="20" height="20" fill="none" xmlns="http://www.w3.org/2000/svg"><g clip-path="url(#clip0_6_338)"><path d="M10 19.31A9.31 9.31 0 1010 .69a9.31 9.31 0 000 18.618z" fill="#505050"/><path d="M5.887 6.59s1.477 1.668 3.92 1.94c0 0-.116-1.395 1.124-2.174 0 0 1.28-.854 2.25.39 0 0 .932-.193 1.28-.426 0 0-.272.527-.738.982l1.048-.207-.971 1.047s.389 3.53-3.473 5.393c0 0-3.007 1.087-5.102-.35 0 0 2.56-.389 2.833-.97 0 0-1.36-.157-1.709-1.32l.738-.04s-1.28-.117-1.436-1.942l.854.116c.004.004-1.356-.382-.618-2.44z" fill="#fff"/></g><defs><clipPath id="clip0_6_338"><path fill="#fff" d="M0 0h20v20H0z"/></clipPath></defs></svg>