<svg width="200" height="200" fill="none" xmlns="http://www.w3.org/2000/svg"><path d="M114.821 146.829a51.667 51.667 0 01-21.654 4.754c-28.43 0-51.584-23.08-51.584-51.583 0-28.508 23.075-51.583 51.584-51.583 28.493 0 51.5 23.142 51.5 51.583 0 .911-.024 1.817-.07 2.717L135.5 93a5.505 5.505 0 00-4-1.75c-1.333 0-2.583.417-3.5 1.5-2.167 2.083-2.333 5.5-.25 7.667L146 120c2.25 2.5 6.167 2.5 8.5 0l18.25-19.583c2.083-2.167 1.917-5.584-.25-7.667s-5.583-1.917-7.667.25l-9.406 10.048c.049-1.012.073-2.029.073-3.048 0-34.393-27.826-62.417-62.333-62.417-34.492 0-62.417 27.925-62.417 62.417 0 34.497 28.014 62.417 62.417 62.417 9.4 0 18.252-2.101 26.179-5.746a5.417 5.417 0 00-4.525-9.842z" fill="#505050"/></svg>